<svg width="110" height="106" viewBox="0 0 110 106" fill="none" xmlns="http://www.w3.org/2000/svg">
<path d="M29.8931 64.9787C29.8931 64.9787 32.0965 71.826 28.8353 88.9727C28.2515 92.0496 27.3915 95.1925 26.9552 97.7681C21.4404 97.7681 21.1454 103.778 22.3161 103.778H28.8887C33.0852 103.778 38.2139 93.7697 40.9854 79.88C43.7569 65.9903 29.8931 64.9787 29.8931 64.9787V64.9787ZM70.8285 76.0916C70.8285 76.0916 77.9597 79.7539 77.6961 88.3423C77.5925 91.7374 76.9145 94.6192 76.5818 97.4199C70.8317 97.4199 70.8097 103.379 72.4858 103.379H78.3113C81.2083 103.379 87.7306 93.8987 88.9171 81.522C90.1067 69.1483 70.8285 76.0916 70.8285 76.0916V76.0916Z" fill="#265FF1"/>
<path d="M110 22.9765C110 8.20125 97.0025 0.621521 81.7513 0.621521C80.0156 0.621521 78.6126 1.96636 78.6126 3.62339C78.6126 5.28043 80.0156 6.62526 81.7513 6.62526C87.4136 6.62526 102.834 9.42901 102.834 22.9765C102.834 31.6249 97.9159 39.3727 91.0012 40.9337C90.4865 40.7145 89.9183 40.6215 89.4036 40.3573C66.6823 28.599 47.1656 43.065 41.6131 39.4868C36.1141 35.9385 39.9214 29.7157 32.7493 23.7479C31.7136 18.2215 29.3815 10.3086 27.1184 10.3086C25.3953 10.3086 23.1479 15.787 21.657 21.2834C19.802 17.1378 17.3789 13.0102 15.819 13.0102C13.8102 13.0102 11.8077 19.8335 10.8158 25.7232C5.54274 29.1663 1.69465 34.1554 1.69465 40.0271C1.69465 48.1321 14.4065 50.1044 18.6438 50.2665C22.8811 50.4286 28.1323 60.9591 29.8962 65.492C33.7945 78.6011 36.3338 91.6053 38.3645 99.0619C33.1888 99.0619 32.7023 105.399 34.1335 105.399C36.3714 105.399 40.2635 105.39 41.1172 105.399C45.4518 105.441 47.4763 91.272 47.4763 78.8353C47.4763 78.1989 47.4418 76.9531 47.4418 76.9531C47.4418 76.9531 53.4995 78.4691 66.3935 76.3287C74.0646 75.0559 82.1814 78.8773 84.4287 85.8236C86.0828 90.9388 88.8198 95.7448 90.2919 99.284C85.3044 99.284 85.4425 105.399 86.8895 105.399C89.3596 105.399 92.5423 105.441 93.7413 105.399C98.349 105.234 95.7595 82.6627 96.9742 75.089C98.1889 67.5152 100.951 58.3445 96.2555 48.6815C106.412 43.3562 110 32.1562 110 22.9765Z" fill="#4E95FF"/>
<path d="M15.8188 35.6474C17.379 35.6474 18.6437 34.4378 18.6437 32.9457C18.6437 31.4536 17.379 30.244 15.8188 30.244C14.2587 30.244 12.994 31.4536 12.994 32.9457C12.994 34.4378 14.2587 35.6474 15.8188 35.6474Z" fill="#292F33"/>
<path d="M6.37164 36.2238C4.24672 37.4936 4.24672 41.5581 3.18582 41.5581C2.12493 41.5581 8.22056e-07 39.1686 8.22056e-07 36.2238C-0.00313792 33.2789 8.98308 34.6628 6.37164 36.2238Z" fill="#E75A70"/>
<path d="M17.6516 40.6755C17.5229 40.7536 17.3691 40.7836 17.2059 40.7536C17.1494 40.7415 12.3471 40.0301 9.21777 41.1918C8.81287 41.3419 8.14746 41.1228 7.92147 40.6185C7.69548 40.1142 7.99366 39.5228 8.39856 39.3727C12.9183 37.6646 17.3659 38.6703 17.6076 38.7183C18.0439 38.8053 18.2197 39.2886 18.1977 39.835C18.1852 40.1772 17.8713 40.5404 17.6516 40.6755V40.6755ZM16.1701 47.6969C16.0194 47.7239 15.8656 47.6939 15.7275 47.6038C15.6804 47.5738 11.5499 45.1123 8.18827 45.0432C7.75512 45.0342 7.23095 44.5809 7.23095 44.0196C7.23095 43.4612 7.74884 43.014 8.18513 43.02C13.0565 43.092 16.7351 45.6946 16.9391 45.8327C17.3063 46.0789 17.2655 46.5982 17.0238 47.1055C16.87 47.4267 16.4306 47.6519 16.1701 47.6969V47.6969Z" fill="#FEE7B8"/>
<path d="M21.6571 21.2774C21.6571 21.2774 22.8247 21.1603 24.3533 21.3765C25.0344 19.9956 26.1895 18.7138 26.1895 18.7138C26.1895 18.7138 27.0714 20.7191 27.401 22.253C27.4795 22.6132 28.0853 22.6042 28.4117 22.8204C28.4117 22.8204 28.531 12.4249 25.7029 11.3052C25.7061 11.2992 23.3332 14.6793 21.6571 21.2774V21.2774ZM10.8128 25.7172C10.8128 25.7172 12.018 24.9157 13.5843 23.9941C14.2654 22.1209 15.3671 19.9926 15.3671 19.9926C15.3671 19.9926 16.3307 21.7997 16.4499 22.4241C17.1091 22.0819 17.1091 22.1059 17.7149 21.8538C17.7149 21.8538 17.357 14.9915 14.2654 14.268C14.2654 14.268 11.9678 18.3866 10.8128 25.7172V25.7172Z" fill="#265FF1"/>
<path d="M54.9144 68.5959C46.5998 70.307 47.4442 76.9471 47.4442 76.9471C47.4442 76.9471 53.5019 78.4631 66.3959 76.3227C69.7449 75.7674 73.1536 76.2327 76.1479 77.4544C71.104 68.3077 62.6043 67.0109 54.9144 68.5959Z" fill="#99B6FF"/>
<path d="M43.1016 39.973C44.5956 42.0023 50.6251 47.0815 51.7174 46.4541C52.7783 45.8447 53.5693 40.2852 52.7909 38.331C48.6195 39.4087 45.305 40.3062 43.1016 39.973V39.973ZM65.1481 48.0451C67.1035 48.4593 69.8782 39.1025 69.5737 35.6683C65.0257 35.7194 60.848 36.4368 57.1286 37.2803C58.1801 40.5224 63.2586 47.6428 65.1481 48.0451ZM73.3936 35.7914C73.5254 37.9618 76.4758 43.6053 77.4268 44.0075C78.3904 44.4188 82.7156 40.0481 83.2837 37.8207C79.8751 36.686 76.5605 36.0286 73.3936 35.7914Z" fill="#265FF1"/>
</svg>
