<svg width="110" height="105" viewBox="0 0 110 105" fill="none" xmlns="http://www.w3.org/2000/svg">
<path d="M29.8931 64.3572C29.8931 64.3572 32.0965 71.2044 28.8353 88.3511C28.2515 91.4281 27.3915 94.571 26.9552 97.1466C21.4404 97.1466 21.1454 103.156 22.3161 103.156H28.8887C33.0852 103.156 38.2139 93.1481 40.9854 79.2585C43.7569 65.3688 29.8931 64.3572 29.8931 64.3572V64.3572ZM70.8285 75.4701C70.8285 75.4701 77.9597 79.1324 77.6961 87.7207C77.5925 91.1159 76.9145 93.9977 76.5818 96.7984C70.8317 96.7984 70.8097 102.757 72.4858 102.757H78.3113C81.2083 102.757 87.7306 93.2772 88.9171 80.9005C90.1067 68.5268 70.8285 75.4701 70.8285 75.4701V75.4701Z" fill="#F18F26"/>
<path d="M110 22.3549C110 7.57973 97.0025 0 81.7513 0C80.0156 0 78.6126 1.34484 78.6126 3.00187C78.6126 4.65891 80.0156 6.00374 81.7513 6.00374C87.4136 6.00374 102.834 8.80749 102.834 22.3549C102.834 31.0033 97.9159 38.7512 91.0012 40.3121C90.4865 40.093 89.9183 39.9999 89.4036 39.7358C66.6823 27.9774 47.1656 42.4435 41.6131 38.8652C36.1141 35.317 39.9214 29.0941 32.7493 23.1264C31.7136 17.6 29.3815 9.68704 27.1184 9.68704C25.3953 9.68704 23.1479 15.1655 21.657 20.6619C19.802 16.5163 17.3789 12.3887 15.819 12.3887C13.8102 12.3887 11.8077 19.212 10.8158 25.1017C5.54274 28.5448 1.69465 33.5339 1.69465 39.4056C1.69465 47.5106 14.4065 49.4829 18.6438 49.645C22.8811 49.8071 28.1323 60.3376 29.8962 64.8705C33.7945 77.9796 36.3338 90.9837 38.3645 98.4404C33.1888 98.4404 32.7023 104.777 34.1335 104.777C36.3714 104.777 40.2635 104.768 41.1172 104.777C45.4518 104.819 47.4763 90.6505 47.4763 78.2138C47.4763 77.5774 47.4418 76.3316 47.4418 76.3316C47.4418 76.3316 53.4995 77.8475 66.3935 75.7072C74.0646 74.4344 82.1814 78.2558 84.4287 85.2021C86.0828 90.3173 88.8198 95.1233 90.2919 98.6625C85.3044 98.6625 85.4425 104.777 86.8895 104.777C89.3596 104.777 92.5423 104.819 93.7413 104.777C98.349 104.612 95.7595 82.0412 96.9742 74.4674C98.1889 66.8937 100.951 57.723 96.2555 48.06C106.412 42.7346 110 31.5347 110 22.3549Z" fill="#FFCC4E"/>
<path d="M15.8188 35.0259C17.379 35.0259 18.6437 33.8163 18.6437 32.3242C18.6437 30.8321 17.379 29.6225 15.8188 29.6225C14.2587 29.6225 12.994 30.8321 12.994 32.3242C12.994 33.8163 14.2587 35.0259 15.8188 35.0259Z" fill="#292F33"/>
<path d="M6.37164 35.6022C4.24672 36.872 4.24672 40.9366 3.18582 40.9366C2.12493 40.9366 8.22056e-07 38.5471 8.22056e-07 35.6022C-0.00313792 32.6574 8.98308 34.0413 6.37164 35.6022Z" fill="#E75A70"/>
<path d="M17.6516 40.054C17.5229 40.1321 17.3691 40.1621 17.2059 40.1321C17.1494 40.1201 12.3471 39.4086 9.21777 40.5703C8.81287 40.7204 8.14746 40.5013 7.92147 39.997C7.69548 39.4927 7.99366 38.9013 8.39856 38.7512C12.9183 37.0431 17.3659 38.0488 17.6076 38.0968C18.0439 38.1838 18.2197 38.6671 18.1977 39.2135C18.1852 39.5557 17.8713 39.9189 17.6516 40.054V40.054ZM16.1701 47.0754C16.0194 47.1024 15.8656 47.0724 15.7275 46.9823C15.6804 46.9523 11.5499 44.4908 8.18827 44.4217C7.75512 44.4127 7.23095 43.9595 7.23095 43.3981C7.23095 42.8398 7.74884 42.3925 8.18513 42.3985C13.0565 42.4705 16.7351 45.0731 16.9391 45.2112C17.3063 45.4574 17.2655 45.9767 17.0238 46.484C16.87 46.8052 16.4306 47.0304 16.1701 47.0754V47.0754Z" fill="#FEE7B8"/>
<path d="M21.6571 20.6559C21.6571 20.6559 22.8247 20.5388 24.3533 20.755C25.0344 19.3741 26.1895 18.0923 26.1895 18.0923C26.1895 18.0923 27.0714 20.0975 27.401 21.6315C27.4795 21.9917 28.0853 21.9827 28.4117 22.1989C28.4117 22.1989 28.531 11.8034 25.703 10.6837C25.7061 10.6777 23.3332 14.0578 21.6571 20.6559V20.6559ZM10.8128 25.0957C10.8128 25.0957 12.0181 24.2942 13.5843 23.3726C14.2654 21.4994 15.3671 19.3711 15.3671 19.3711C15.3671 19.3711 16.3307 21.1782 16.45 21.8026C17.1091 21.4604 17.1091 21.4844 17.7149 21.2323C17.7149 21.2323 17.357 14.37 14.2654 13.6465C14.2654 13.6465 11.9678 17.7651 10.8128 25.0957V25.0957Z" fill="#F18F26"/>
<path d="M54.9144 67.9744C46.5998 69.6855 47.4442 76.3256 47.4442 76.3256C47.4442 76.3256 53.5019 77.8415 66.3959 75.7012C69.7449 75.1459 73.1536 75.6111 76.1479 76.8329C71.104 67.6862 62.6043 66.3894 54.9144 67.9744Z" fill="#FFDD99"/>
<path d="M43.1016 39.3515C44.5956 41.3808 50.6251 46.4599 51.7174 45.8326C52.7783 45.2232 53.5693 39.6637 52.7909 37.7095C48.6195 38.7872 45.305 39.6847 43.1016 39.3515V39.3515ZM65.1481 47.4235C67.1035 47.8378 69.8782 38.481 69.5737 35.0468C65.0257 35.0979 60.848 35.8153 57.1286 36.6588C58.1801 39.9009 63.2585 47.0213 65.1481 47.4235ZM73.3935 35.1699C73.5254 37.3403 76.4758 42.9838 77.4268 43.386C78.3904 43.7973 82.7156 39.4266 83.2837 37.1992C79.875 36.0645 76.5605 35.4071 73.3935 35.1699Z" fill="#F18F26"/>
</svg>
